<?xml version="1.0" encoding="utf-8"?>
<!-- Generator: Adobe Illustrator 22.1.0, SVG Export Plug-In . SVG Version: 6.00 Build 0)  -->
<svg version="1.2" baseProfile="tiny" xmlns="http://www.w3.org/2000/svg" xmlns:xlink="http://www.w3.org/1999/xlink" x="0px"
	 y="0px" viewBox="0 0 206 48" xml:space="preserve">
<g id="Layer_1">
	<g>
		<g>
			<rect x="15" y="14.9" fill="#DA405C" width="8.6" height="3"/>
			<rect x="24.3" y="14.9" fill="#DA405C" width="8.6" height="3"/>
		</g>
		<g>
			<path fill="#231F20" d="M23.9,46.2C11.7,46.2,1.7,36.2,1.7,24S11.7,1.8,23.9,1.8S46.1,11.8,46.1,24S36.1,46.2,23.9,46.2z
				 M23.9,5.4C13.7,5.4,5.3,13.7,5.3,24s8.3,18.6,18.6,18.6S42.5,34.3,42.5,24S34.2,5.4,23.9,5.4z"/>
		</g>
		<g>
			<path fill="#231F20" d="M52.3,12.6h1.2L58,34.1h1.3l4.9-21.2h1.4l4.9,21.2h1.3l4.5-21.5h1.2l-4.7,22.6h-3.1l-4.7-20.7l-4.7,20.7
				h-3.1L52.3,12.6z"/>
			<path fill="#231F20" d="M89.1,26.9H82v8.3h-1.2V12.6h8.2c2.3,0,4,0.6,5.1,1.7s1.6,2.9,1.6,5.2C95.8,24.4,93.5,26.9,89.1,26.9z
				 M82,25.8h7.1c3.6,0,5.4-2.1,5.4-6.3c0-2-0.4-3.4-1.3-4.4c-0.9-1-2.2-1.4-4.2-1.4H82V25.8z"/>
			<path fill="#231F20" d="M103.1,27.8v7.4h-4.4V13.2h8.5c5.2,0,7.7,2.4,7.7,7.2c0,2.9-1.1,5-3.2,6.3l3.1,8.4h-4.9l-2.5-7.4H103.1z
				 M109.6,23c0.5-0.6,0.8-1.5,0.8-2.5c0-1.1-0.3-1.9-0.8-2.5c-0.5-0.6-1.3-0.9-2.4-0.9h-4.1v7h4.1C108.3,24,109.1,23.7,109.6,23z"
				/>
			<path fill="#231F20" d="M133,32.8c-1.4,1.8-3.7,2.7-7,2.7c-3.3,0-5.7-0.9-7-2.7c-1.4-1.8-2-4.7-2-8.5c0-3.9,0.7-6.7,2-8.6
				c1.4-1.9,3.7-2.8,7-2.8c3.3,0,5.7,0.9,7,2.8c1.4,1.9,2,4.8,2,8.6C135.1,28.2,134.4,31,133,32.8z M122.4,30
				c0.6,1.1,1.8,1.7,3.6,1.7c1.7,0,2.9-0.6,3.6-1.7c0.6-1.1,1-3,1-5.7c0-2.7-0.3-4.6-1-5.8c-0.6-1.2-1.8-1.8-3.5-1.8
				c-1.7,0-2.9,0.6-3.5,1.8c-0.6,1.2-1,3.1-1,5.8C121.5,27,121.8,28.9,122.4,30z"/>
			<path fill="#231F20" d="M144.8,16.7c-2.3,0-3.5,0.8-3.5,2.3c0,0.7,0.3,1.2,0.9,1.6c0.6,0.4,1.9,0.9,4.1,1.6
				c2.1,0.7,3.6,1.5,4.5,2.3c0.9,0.9,1.3,2.2,1.3,4c0,2.3-0.7,4-2.1,5.2c-1.4,1.2-3.2,1.8-5.5,1.8c-1.7,0-3.7-0.3-6.2-0.8l-1.2-0.2
				l0.5-3.4c2.9,0.4,5.1,0.6,6.6,0.6c2.3,0,3.4-0.9,3.4-2.8c0-0.7-0.3-1.2-0.8-1.6c-0.5-0.4-1.6-0.8-3.1-1.3
				c-2.5-0.7-4.3-1.6-5.3-2.5c-1-1-1.5-2.3-1.5-4.1c0-2.2,0.7-3.8,2-4.9c1.3-1.1,3.2-1.6,5.5-1.6c1.6,0,3.6,0.2,6.1,0.6l1.2,0.2
				l-0.4,3.5C148.2,16.9,146,16.7,144.8,16.7z"/>
			<path fill="#231F20" d="M152.8,17.2v-3.9h16.1v3.9h-5.8v18h-4.4v-18H152.8z"/>
			<path fill="#231F20" d="M170.9,35.2V13.2h14.2v3.9h-9.7v5.1h7.8V26h-7.8v5.3h9.7v3.9H170.9z"/>
			<path fill="#231F20" d="M192.5,27.8v7.4H188V13.2h8.5c5.2,0,7.7,2.4,7.7,7.2c0,2.9-1.1,5-3.2,6.3l3.1,8.4h-4.9l-2.5-7.4H192.5z
				 M198.9,23c0.5-0.6,0.8-1.5,0.8-2.5c0-1.1-0.3-1.9-0.8-2.5c-0.5-0.6-1.3-0.9-2.4-0.9h-4.1v7h4.1C197.6,24,198.4,23.7,198.9,23z"
				/>
		</g>
		<rect x="15" y="18.7" fill="#231F20" width="8.6" height="3"/>
		<rect x="15" y="22.4" fill="#231F20" width="8.6" height="3"/>
		<rect x="15" y="26.1" fill="#231F20" width="8.6" height="3"/>
		<rect x="15" y="29.9" fill="#231F20" width="8.6" height="3"/>
		<rect x="24.3" y="18.7" fill="#D1D3D4" width="8.6" height="3"/>
		<rect x="24.3" y="22.4" fill="#D1D3D4" width="8.6" height="3"/>
		<rect x="24.3" y="26.1" fill="#D1D3D4" width="8.6" height="3"/>
		<rect x="24.3" y="29.9" fill="#D1D3D4" width="8.6" height="3"/>
	</g>
</g>
<g id="Layer_2" display="none">
</g>
</svg>
