<?xml version="1.0" encoding="utf-8"?>
<!-- Generator: Adobe Illustrator 22.1.0, SVG Export Plug-In . SVG Version: 6.00 Build 0)  -->
<svg version="1.2" baseProfile="tiny" id="Layer_1" xmlns="http://www.w3.org/2000/svg" xmlns:xlink="http://www.w3.org/1999/xlink"
	 x="0px" y="0px" viewBox="0 0 128 128" xml:space="preserve">
<rect x="-11" y="-11" fill="#231F20" width="150" height="150"/>
<g>
	<g>
		<g>
			<path fill="#FFFFFF" d="M20.5,87.9h0.7l2.6,12.3h0.7l2.8-12.1h0.8l2.8,12.1h0.7l2.6-12.3h0.7l-2.7,12.9h-1.8L27.7,89L25,100.8
				h-1.8L20.5,87.9z"/>
			<path fill="#FFFFFF" d="M41.5,96.1h-4v4.7h-0.7V87.9h4.7c1.3,0,2.3,0.3,2.9,1c0.6,0.6,0.9,1.6,0.9,3
				C45.4,94.7,44.1,96.1,41.5,96.1z M37.5,95.5h4c2.1,0,3.1-1.2,3.1-3.6c0-1.1-0.2-2-0.7-2.5c-0.5-0.5-1.3-0.8-2.4-0.8h-4V95.5z"/>
			<path fill="#FFFFFF" d="M49.6,96.6v4.2H47V88.3h4.9c3,0,4.4,1.4,4.4,4.1c0,1.6-0.6,2.8-1.8,3.6l1.8,4.8h-2.8L52,96.6H49.6z
				 M53.3,93.9c0.3-0.4,0.4-0.9,0.4-1.5c0-0.6-0.2-1.1-0.5-1.4c-0.3-0.4-0.8-0.5-1.4-0.5h-2.3v4h2.4C52.5,94.4,53,94.3,53.3,93.9z"
				/>
			<path fill="#FFFFFF" d="M66.7,99.5c-0.8,1-2.1,1.6-4,1.6c-1.9,0-3.3-0.5-4-1.6c-0.8-1-1.2-2.7-1.2-4.9c0-2.2,0.4-3.9,1.2-4.9
				c0.8-1.1,2.1-1.6,4-1.6c1.9,0,3.3,0.5,4,1.6c0.8,1.1,1.2,2.7,1.2,4.9C67.9,96.8,67.5,98.5,66.7,99.5z M60.6,97.9c0.4,0.6,1,1,2,1
				c1,0,1.7-0.3,2-1c0.4-0.6,0.5-1.7,0.5-3.2c0-1.5-0.2-2.6-0.6-3.3c-0.4-0.7-1-1-2-1c-1,0-1.7,0.3-2,1c-0.4,0.7-0.6,1.8-0.6,3.3
				C60.1,96.1,60.3,97.2,60.6,97.9z"/>
			<path fill="#FFFFFF" d="M73.5,90.3c-1.3,0-2,0.4-2,1.3c0,0.4,0.2,0.7,0.5,0.9c0.3,0.2,1.1,0.5,2.3,0.9c1.2,0.4,2.1,0.8,2.6,1.3
				c0.5,0.5,0.7,1.3,0.7,2.3c0,1.3-0.4,2.3-1.2,3c-0.8,0.7-1.8,1-3.1,1c-1,0-2.1-0.1-3.5-0.4l-0.7-0.1l0.3-2
				c1.6,0.2,2.9,0.3,3.8,0.3c1.3,0,2-0.5,2-1.6c0-0.4-0.2-0.7-0.5-0.9c-0.3-0.2-0.9-0.5-1.8-0.7c-1.4-0.4-2.4-0.9-3-1.4
				c-0.6-0.6-0.9-1.3-0.9-2.3c0-1.3,0.4-2.2,1.1-2.8c0.8-0.6,1.8-0.9,3.1-0.9c0.9,0,2.1,0.1,3.5,0.4l0.7,0.1l-0.2,2
				C75.4,90.4,74.2,90.3,73.5,90.3z"/>
			<path fill="#FFFFFF" d="M78.1,90.5v-2.3h9.2v2.3H84v10.3h-2.5V90.5H78.1z"/>
			<path fill="#FFFFFF" d="M88.4,100.8V88.3h8.1v2.2H91v2.9h4.5v2.2H91v3h5.6v2.2H88.4z"/>
			<path fill="#FFFFFF" d="M100.7,96.6v4.2h-2.5V88.3h4.9c3,0,4.4,1.4,4.4,4.1c0,1.6-0.6,2.8-1.8,3.6l1.8,4.8h-2.8l-1.5-4.2H100.7z
				 M104.5,93.9c0.3-0.4,0.4-0.9,0.4-1.5c0-0.6-0.2-1.1-0.5-1.4c-0.3-0.4-0.8-0.5-1.4-0.5h-2.3v4h2.4
				C103.7,94.4,104.2,94.3,104.5,93.9z"/>
		</g>
		<g>
			<g>
				<rect x="53.8" y="41.8" fill="#DA405C" width="9.8" height="3.4"/>
				<rect x="64.4" y="41.8" fill="#DA405C" width="9.8" height="3.4"/>
			</g>
			<g>
				<path fill="#FFFFFF" d="M64,77.4c-13.9,0-25.2-11.3-25.2-25.2S50.1,26.9,64,26.9s25.2,11.3,25.2,25.2S77.9,77.4,64,77.4z M64,31
					c-11.7,0-21.2,9.5-21.2,21.2S52.3,73.3,64,73.3s21.2-9.5,21.2-21.2S75.7,31,64,31z"/>
			</g>
			<g>
				<rect x="53.8" y="46.1" fill="#FFFFFF" width="9.8" height="3.4"/>
				<rect x="53.8" y="50.3" fill="#FFFFFF" width="9.8" height="3.4"/>
				<rect x="53.8" y="54.6" fill="#FFFFFF" width="9.8" height="3.4"/>
				<rect x="53.8" y="58.8" fill="#FFFFFF" width="9.8" height="3.4"/>
			</g>
			<rect x="64.4" y="46.1" fill="#D1D3D4" width="9.8" height="3.4"/>
			<rect x="64.4" y="50.3" fill="#D1D3D4" width="9.8" height="3.4"/>
			<rect x="64.4" y="54.6" fill="#D1D3D4" width="9.8" height="3.4"/>
			<rect x="64.4" y="58.8" fill="#D1D3D4" width="9.8" height="3.4"/>
		</g>
	</g>
	<rect y="0" fill="none" width="128" height="128"/>
</g>
</svg>
